<?xml version="1.0" standalone="no"?>
<!DOCTYPE svg PUBLIC "-//W3C//DTD SVG 20010904//EN"
 "http://www.w3.org/TR/2001/REC-SVG-20010904/DTD/svg10.dtd">
<svg version="1.0" xmlns="http://www.w3.org/2000/svg"
 width="1280.000000pt" height="1162.000000pt" viewBox="0 0 1280.000000 1162.000000"
 preserveAspectRatio="xMidYMid meet">
<metadata>
Created by potrace 1.15, written by Peter Selinger 2001-2017
</metadata>
<g transform="translate(0.000000,1162.000000) scale(0.100000,-0.100000)"
fill="#000000" stroke="none">
<path d="M4460 11604 c-78 -34 -130 -111 -130 -194 0 -73 16 -103 119 -220
l91 -105 0 -577 0 -577 -133 -158 c-239 -286 -315 -393 -392 -556 -75 -157
-97 -249 -102 -422 -7 -215 26 -362 129 -573 75 -155 270 -434 352 -505 143
-124 356 -28 356 161 0 50 -25 99 -89 177 -32 38 -72 90 -89 114 l-32 44 0
527 0 527 191 229 c302 361 385 491 457 709 50 149 55 382 12 540 -61 229
-207 475 -429 723 -125 140 -213 179 -311 136z"/>
<path d="M5537 11556 c-52 -14 -108 -60 -135 -111 -22 -42 -20 -141 3 -185 10
-19 41 -59 69 -90 29 -30 66 -72 84 -93 l32 -38 0 -584 0 -585 -135 -160
c-240 -285 -346 -441 -415 -615 -158 -398 -73 -807 260 -1251 145 -191 197
-234 290 -234 87 0 153 39 190 110 48 94 32 166 -61 280 -34 41 -76 96 -95
121 l-34 47 0 517 0 516 28 37 c15 20 102 125 194 235 197 235 280 348 347
478 219 417 161 826 -179 1278 -48 64 -129 160 -180 213 -78 84 -99 100 -143
113 -59 18 -58 18 -120 1z"/>
<path d="M6705 11559 c-89 -21 -158 -111 -156 -206 0 -69 21 -112 91 -187 30
-34 70 -78 88 -99 l32 -38 0 -573 0 -574 -161 -194 c-199 -238 -285 -361 -354
-503 -91 -187 -117 -291 -118 -475 -1 -305 123 -602 390 -935 44 -55 89 -108
99 -117 54 -47 165 -63 230 -32 71 34 124 119 124 199 -1 43 -34 110 -84 169
-23 28 -61 76 -84 107 l-42 56 0 530 0 530 189 226 c308 369 388 493 460 717
94 295 30 627 -186 955 -110 167 -308 396 -369 428 -40 20 -101 27 -149 16z"/>
<path d="M1059 7386 c-128 -52 -195 -147 -206 -289 -12 -170 23 -1042 57
-1412 98 -1051 328 -1911 709 -2650 109 -212 200 -367 336 -569 58 -86 105
-159 105 -162 0 -2 -405 -4 -900 -4 -880 0 -900 0 -954 -20 -72 -27 -135 -85
-171 -156 -26 -50 -30 -70 -30 -139 0 -114 25 -158 177 -320 68 -71 218 -238
334 -370 424 -482 636 -658 1019 -845 397 -195 928 -332 1644 -425 l195 -25
2077 0 2077 0 219 35 c904 147 1479 333 1908 620 217 145 389 300 674 610 91
99 245 261 342 360 155 159 179 188 198 240 30 78 27 188 -7 256 -28 58 -89
119 -150 150 l-47 24 -943 5 -942 5 66 90 c258 349 505 800 668 1216 l44 112
42 -83 c267 -530 720 -896 1221 -986 126 -22 343 -22 474 1 576 99 1060 539
1323 1201 123 308 177 608 176 979 -1 310 -28 504 -109 785 -192 658 -649
1174 -1195 1348 -302 96 -662 83 -951 -34 -155 -63 -313 -157 -428 -255 -35
-30 -75 -62 -88 -73 l-24 -19 7 249 c7 262 1 331 -36 404 -27 53 -88 110 -150
139 l-55 26 -4325 2 -4325 3 -56 -24z"/>
</g>
</svg>
